<svg width="100" height="100" viewBox="0 0 100 100" fill="none" xmlns="http://www.w3.org/2000/svg">
<rect width="100" height="100" rx="20" fill="url(#paint0_linear_1602_2)"/>
<path d="M80 31.25C80 40.2233 66.5667 47.5 50 47.5C33.4333 47.5 20 40.2233 20 31.25C20 22.2767 33.4333 15 50 15C66.5667 15 80 22.2767 80 31.25Z" fill="#D8D8D8"/>
<path d="M50 52.5C58.95 52.5 67.3 50.5467 73.5933 47.1367C75.9095 45.907 78.0387 44.3536 79.9167 42.5233C79.97 42.9267 80 43.3367 80 43.75C80 52.7233 66.5667 60 50 60C33.4333 60 20 52.7233 20 43.75C20 43.3367 20.03 42.9267 20.0833 42.5233C21.9614 44.3535 24.0905 45.9069 26.4067 47.1367C32.6967 50.5467 41.05 52.5 50 52.5Z" fill="#D8D8D8"/>
<path d="M50 65C58.95 65 67.3 63.0467 73.5933 59.6367C75.9095 58.407 78.0387 56.8536 79.9167 55.0233C79.97 55.4267 80 55.8367 80 56.25C80 65.2233 66.5667 72.5 50 72.5C33.4333 72.5 20 65.2233 20 56.25C20 55.8367 20.03 55.4267 20.0833 55.0233C21.9614 56.8536 24.0905 58.407 26.4067 59.6367C32.6967 63.0467 41.05 65 50 65Z" fill="#D8D8D8"/>
<path d="M50 77.5C58.95 77.5 67.3 75.5467 73.5933 72.1367C75.9095 70.907 78.0387 69.3536 79.9167 67.5233C79.97 67.9267 80 68.3367 80 68.75C80 77.7233 66.5667 85 50 85C33.4333 85 20 77.7233 20 68.75C20 68.3367 20.03 67.9267 20.0833 67.5233C21.9614 69.3536 24.0905 70.907 26.4067 72.1367C32.6967 75.5467 41.05 77.5 50 77.5Z" fill="#D8D8D8"/>
<defs>
<linearGradient id="paint0_linear_1602_2" x1="0" y1="0" x2="100" y2="100" gradientUnits="userSpaceOnUse">
<stop stop-color="#C62368"/>
<stop offset="1" stop-color="#FA7268"/>
</linearGradient>
</defs>
</svg>
